<svg xmlns="http://www.w3.org/2000/svg" id="icon_pointSpecial_kj" width="16" height="16" viewBox="0 0 16 16"><defs><style>.cls-1{fill:#ccc}.cls-2{fill:none}.cls-3,.cls-6{fill:#fff}.cls-3{stroke:#666;stroke-miterlimit:10}.cls-4,.cls-5{fill:#666}.cls-4{stroke:transparent}.cls-7,.cls-8{stroke:none}.cls-8{fill:#707070}</style></defs><path id="路径_607" d="M12.564,4.659l-8.833,9.22h8.833Z" class="cls-1" data-name="路径 607" transform="translate(0 -1)"/><rect id="矩形备份_10" width="16" height="16" class="cls-2" data-name="矩形备份 10"/><rect id="矩形备份_14" width="3" height="3" class="cls-3" data-name="矩形备份 14" transform="translate(5.222 14.222) rotate(180)"/><rect id="矩形备份_14-2" width="3" height="3" class="cls-3" data-name="矩形备份 14" transform="translate(14.222 5.222) rotate(180)"/><path id="矩形备份" d="M-.011-.213h1.5L1.5,8.8H0Z" class="cls-4" transform="translate(5.747 11.758) rotate(-135)"/><rect id="矩形_255" width="1.5" height="7" class="cls-5" data-name="矩形 255" transform="translate(12 5)"/><rect id="矩形_261" width="1.5" height="8" class="cls-5" data-name="矩形 261" transform="translate(4.75 13.5) rotate(-90)"/><g id="多边形_2" class="cls-6" data-name="多边形 2"><path d="M 5.116899967193604 4.5 L 0.8830999732017517 4.5 L 3 0.971833348274231 L 5.116899967193604 4.5 Z" class="cls-7" transform="translate(10 9.6)"/><path d="M 3 1.943650007247925 L 1.766190052032471 4 L 4.233809947967529 4 L 3 1.943650007247925 M 3 0 L 6 5 L 0 5 L 3 0 Z" class="cls-8" transform="translate(10 9.6)"/></g></svg>